<svg xmlns="http://www.w3.org/2000/svg" viewBox="0 0 120 40" role="img" aria-labelledby="title desc">
  <title id="title">Ayllu Logo</title>
  <desc id="desc">A stylised network node icon followed by the word Ayllu</desc>
  <defs>
    <style>
      .icon-fill { fill: #227a68; }
      .text-fill { fill: #227a68; font-family: "Inter", "Helvetica", "Arial", sans-serif; font-weight: 600; letter-spacing: 0.02em; }
    </style>
  </defs>
  <g transform="translate(0 4)">
    <circle class="icon-fill" cx="16" cy="16" r="15" fill="none" stroke="#227a68" stroke-width="2.5" />
    <g class="icon-fill" transform="translate(16 16)">
      <circle r="4" />
      <g stroke="#227a68" stroke-linecap="round" stroke-width="3">
        <line x1="0" y1="-4" x2="0" y2="-9" />
        <line x1="0" y1="4" x2="0" y2="9" />
        <line x1="-4" y1="0" x2="-9" y2="0" />
        <line x1="4" y1="0" x2="9" y2="0" />
        <line x1="2.8" y1="2.8" x2="6.8" y2="6.8" />
        <line x1="-2.8" y1="-2.8" x2="-6.8" y2="-6.8" />
        <line x1="2.8" y1="-2.8" x2="6.8" y2="-6.8" />
        <line x1="-2.8" y1="2.8" x2="-6.8" y2="6.8" />
      </g>
      <g>
        <circle cy="-12" r="3.2" />
        <circle cy="12" r="3.2" />
        <circle cx="12" r="3.2" />
        <circle cx="-12" r="3.2" />
        <circle cx="8.8" cy="8.8" r="3.2" />
        <circle cx="-8.8" cy="8.8" r="3.2" />
        <circle cx="8.8" cy="-8.8" r="3.2" />
        <circle cx="-8.8" cy="-8.8" r="3.2" />
      </g>
    </g>
  </g>
  <text class="text-fill" x="48" y="26" font-size="20">Ayllu</text>
</svg>

